<svg xmlns="http://www.w3.org/2000/svg" viewBox="0 0 980 560" role="img" aria-labelledby="title desc">
  <title id="title">Hermes Server system overview</title>
  <desc id="desc">A schematic showing Hermes Agent Runtime connected to chat platforms, memory, schedulers, skills, MCP servers, and model providers.</desc>
  <defs>
    <linearGradient id="a" x1="0" y1="0" x2="1" y2="1"><stop stop-color="#06b6d4"/><stop offset="1" stop-color="#a78bfa"/></linearGradient>
  </defs>
  <rect width="980" height="560" rx="26" fill="#0d0d10"/>
  <g fill="none" stroke="#3f3f46" stroke-width="2">
    <path d="M490 160V92M490 160 230 126M490 160 750 126M490 260 190 270M490 260 790 270M490 350 300 430M490 350 680 430"/>
  </g>
  <g font-family="Inter, Arial, sans-serif" font-weight="700" text-anchor="middle">
    <rect x="340" y="160" width="300" height="178" rx="22" fill="#16161a" stroke="url(#a)" stroke-width="3"/>
    <text x="490" y="230" fill="#fafafa" font-size="28">Hermes Agent</text>
    <text x="490" y="265" fill="#fafafa" font-size="28">Runtime</text>
    <text x="490" y="303" fill="#a1a1aa" font-size="16" font-weight="500">sessions · tools · routing</text>
    <g fill="#16161a" stroke="#27272a" stroke-width="2">
      <rect x="390" y="42" width="200" height="58" rx="14"/>
      <rect x="95" y="90" width="190" height="58" rx="14"/>
      <rect x="695" y="90" width="190" height="58" rx="14"/>
      <rect x="70" y="240" width="220" height="64" rx="14"/>
      <rect x="690" y="240" width="220" height="64" rx="14"/>
      <rect x="170" y="410" width="260" height="64" rx="14"/>
      <rect x="550" y="410" width="260" height="64" rx="14"/>
    </g>
    <g fill="#fafafa" font-size="18">
      <text x="490" y="78">Cron Scheduler</text>
      <text x="190" y="126">Telegram</text>
      <text x="790" y="126">Discord</text>
      <text x="180" y="277">Obsidian Vault</text>
      <text x="800" y="277">Skills Library</text>
      <text x="300" y="448">MCP Servers</text>
      <text x="680" y="440">LLM Providers</text>
      <text x="680" y="464" fill="#a1a1aa" font-size="14" font-weight="500">Anthropic · OpenAI · FAL</text>
    </g>
    <rect x="240" y="504" width="500" height="34" rx="17" fill="#0a0a0b" stroke="#27272a"/>
    <text x="490" y="527" fill="#a1a1aa" font-size="15" font-weight="600">Dell XPS 15 7590 · Ubuntu 24.04 · Kernel 6.17</text>
  </g>
</svg>
